<?xml version="1.0" encoding="UTF-8" standalone="no"?>
<!-- Created with Inkscape (http://www.inkscape.org/) -->

<svg
   xmlns:dc="http://purl.org/dc/elements/1.1/"
   xmlns:cc="http://creativecommons.org/ns#"
   xmlns:rdf="http://www.w3.org/1999/02/22-rdf-syntax-ns#"
   xmlns:svg="http://www.w3.org/2000/svg"
   xmlns="http://www.w3.org/2000/svg"
   xmlns:sodipodi="http://sodipodi.sourceforge.net/DTD/sodipodi-0.dtd"
   xmlns:inkscape="http://www.inkscape.org/namespaces/inkscape"
   width="543.06812"
   height="91.301323"
   id="svg2"
   version="1.1"
   inkscape:version="0.48.5 r10040"
   sodipodi:docname="slaskcraft_base.svg">
  <defs
     id="defs4" />
  <sodipodi:namedview
     id="base"
     pagecolor="#ffffff"
     bordercolor="#666666"
     borderopacity="1.0"
     inkscape:pageopacity="0.0"
     inkscape:pageshadow="2"
     inkscape:zoom="0.98994949"
     inkscape:cx="308.57774"
     inkscape:cy="103.88147"
     inkscape:document-units="px"
     inkscape:current-layer="text2985"
     showgrid="false"
     showguides="true"
     inkscape:guide-bbox="true"
     inkscape:window-width="1920"
     inkscape:window-height="1028"
     inkscape:window-x="1912"
     inkscape:window-y="-8"
     inkscape:window-maximized="1"
     fit-margin-top="0"
     fit-margin-left="0"
     fit-margin-right="0"
     fit-margin-bottom="0" />
  <metadata
     id="metadata7">
    <rdf:RDF>
      <cc:Work
         rdf:about="">
        <dc:format>image/svg+xml</dc:format>
        <dc:type
           rdf:resource="http://purl.org/dc/dcmitype/StillImage" />
        <dc:title></dc:title>
      </cc:Work>
    </rdf:RDF>
  </metadata>
  <g
     inkscape:label="Layer 1"
     inkscape:groupmode="layer"
     id="layer1"
     transform="translate(-341.87242,-626.52829)">
    <g
       style="font-size:122.66775513px;font-style:normal;font-weight:normal;line-height:125%;letter-spacing:0px;word-spacing:0px;fill:#000000;fill-opacity:1;stroke:none;font-family:Sans"
       id="text2985">
      <g
         id="g4121">
        <path
           inkscape:connector-curvature="0"
           id="path2990"
           style="font-variant:normal;font-weight:900;font-stretch:normal;fill:#fbbb1b;fill-opacity:1;stroke:#900c0c;stroke-width:2;stroke-linecap:butt;stroke-linejoin:miter;stroke-miterlimit:4;stroke-opacity:1;stroke-dasharray:none;font-family:Pincoyablack;-inkscape-font-specification:Pincoyablack Heavy"
           d="m 388.99516,716.82927 c 2.98738,-0.0256 5.16982,-0.80244 6.54731,-2.33066 1.37738,-1.52822 2.05716,-3.65443 2.03933,-6.37864 l 0,-40.97051 c 0.0153,-2.72415 -0.65939,-4.85036 -2.024,-6.37864 -1.36471,-1.52816 -3.51137,-2.30504 -6.43997,-2.33065 l -20.48525,0 0,-6.62398 c -0.003,-0.50082 0.1252,-0.9097 0.38333,-1.22666 0.25808,-0.31682 0.66186,-0.48038 1.21133,-0.49066 0.54941,0.0103 0.95319,0.17384 1.21133,0.49066 0.25808,0.31695 0.38585,0.72584 0.38333,1.22666 l 0,3.43466 25.7599,0 0,-19.01326 c 0.0153,-2.72413 -0.65939,-4.85034 -2.024,-6.37864 -1.36471,-1.52813 -3.51137,-2.30502 -6.43997,-2.33066 l -37.78118,0 c -2.92866,0.0256 -5.07532,0.80253 -6.43998,2.33066 -1.36466,1.5283 -2.03932,3.65451 -2.02399,6.37864 l 0,35.94119 c -0.0153,2.72425 0.65933,4.85046 2.02399,6.37864 1.36466,1.52825 3.51132,2.30514 6.43998,2.33066 l 20.48525,0 0,11.77595 c -0.005,0.50091 -0.14825,0.9098 -0.42934,1.22666 -0.28114,0.31691 -0.66958,0.48046 -1.16532,0.49067 -0.54947,-0.0102 -0.95325,-0.17376 -1.21133,-0.49067 -0.25814,-0.31686 -0.38591,-0.72575 -0.38333,-1.22666 l 0,-9.0773 -25.7599,0 0,24.6559 c 0.0256,2.98744 0.80244,5.16987 2.33066,6.54731 1.52821,1.37744 3.65442,2.05721 6.37864,2.03933 z" />
        <path
           inkscape:connector-curvature="0"
           id="path2992"
           d="m 400.125,627.54075 0,11.125 0,25.28125 0,27.21875 0,16.96875 c -0.0153,2.72422 0.66658,4.84679 2.03125,6.375 1.36465,1.52821 3.50884,2.28694 6.4375,2.3125 l 11.96875,0 5.34375,0 57.21875,0 0,-22.4375 -57.21875,0 0,-66.84375 -25.78125,0 z m 36.75,0 c -2.92866,0.0256 -5.07284,0.78437 -6.4375,2.3125 -1.36466,1.5283 -2.04658,3.65087 -2.03125,6.375 l 0,55.46875 25.75,0 0,-7.5 3.1875,0 0,7.5 25.78125,0 0,-55.46875 c 0.0153,-2.72413 -0.66664,-4.8467 -2.03125,-6.375 -1.36471,-1.52813 -3.50889,-2.28686 -6.4375,-2.3125 l -37.78125,0 z m 18.875,22.5625 c 0.54942,0.0256 0.96061,0.23093 1.21875,0.59375 0.25808,0.36296 0.37753,0.73152 0.375,1.125 l 0,18.625 -3.1875,0 0,-18.625 c -0.003,-0.39349 0.14812,-0.76205 0.40625,-1.125 0.25809,-0.36283 0.63803,-0.56814 1.1875,-0.59375 z"
           style="font-variant:normal;font-weight:900;font-stretch:normal;fill:#fbbb1b;fill-opacity:1;stroke:#900c0c;stroke-width:2;stroke-linecap:butt;stroke-linejoin:miter;stroke-miterlimit:4;stroke-opacity:1;stroke-dasharray:none;font-family:Pincoyablack;-inkscape-font-specification:Pincoyablack Heavy" />
        <path
           inkscape:connector-curvature="0"
           id="path2996"
           style="font-variant:normal;font-weight:900;font-stretch:normal;fill:#fbbb1b;fill-opacity:1;stroke:#900c0c;stroke-width:2;stroke-linecap:butt;stroke-linejoin:miter;stroke-miterlimit:4;stroke-opacity:1;stroke-dasharray:none;font-family:Pincoyablack;-inkscape-font-specification:Pincoyablack Heavy"
           d="m 540.37473,667.14946 c 0.0153,-2.72415 -0.65938,-4.85036 -2.02399,-6.37864 -1.36471,-1.52816 -3.51137,-2.30504 -6.43997,-2.33065 l -20.48525,0 0,-6.62398 c -0.003,-0.39349 0.12519,-0.77171 0.38333,-1.13466 0.25808,-0.36283 0.66186,-0.55705 1.21133,-0.58266 0.54941,0.0256 0.95319,0.21984 1.21132,0.58266 0.25808,0.36296 0.38586,0.74118 0.38334,1.13466 l 0,3.43466 25.75989,0 0,-19.01326 c 0.0153,-2.72413 -0.65938,-4.85034 -2.02399,-6.37864 -1.36471,-1.52813 -3.51137,-2.30502 -6.43997,-2.33066 l -37.78118,0 c -2.92867,0.0256 -5.07532,0.80253 -6.43998,2.33066 -1.36466,1.5283 -2.03933,3.65451 -2.02399,6.37864 l 0,35.94119 c -0.0153,2.72425 0.65933,4.85046 2.02399,6.37864 1.36466,1.52825 3.51131,2.30514 6.43998,2.33066 l 20.48525,0 0,11.77595 c 0.003,0.39358 -0.12526,0.7718 -0.38334,1.13466 -0.25814,0.36291 -0.66191,0.55713 -1.21132,0.58267 -0.54947,-0.0255 -0.95325,-0.21976 -1.21133,-0.58267 -0.25814,-0.36286 -0.38592,-0.74108 -0.38333,-1.13466 l 0,-9.0773 -25.7599,0 0,24.53324 c -0.0153,2.72422 0.65933,4.85043 2.02399,6.37864 1.36466,1.52821 3.51131,2.3051 6.43998,2.33066 l 37.78118,0 c 2.9286,-0.0256 5.07526,-0.80244 6.43997,-2.33066 1.36461,-1.52822 2.03927,-3.65443 2.02399,-6.37864 z" />
        <path
           inkscape:connector-curvature="0"
           id="path2998"
           style="font-variant:normal;font-weight:900;font-stretch:normal;fill:#fbbb1b;fill-opacity:1;stroke:#900c0c;stroke-width:2;stroke-linecap:butt;stroke-linejoin:miter;stroke-miterlimit:4;stroke-opacity:1;stroke-dasharray:none;font-family:Pincoyablack;-inkscape-font-specification:Pincoyablack Heavy"
           d="m 571.87576,680.76541 0,27.35456 c -0.0154,2.72422 0.6593,4.85043 2.02399,6.37864 1.36463,1.52821 3.51129,2.3051 6.43998,2.33066 l 17.29593,0 0,-34.22387 c 0.0153,-2.72417 -0.65939,-4.85038 -2.024,-6.37864 -1.36471,-1.52817 -3.51136,-2.30506 -6.43997,-2.33066 l -0.12266,0 0,-1.71732 0.12266,0 c 2.92861,-0.0255 5.07526,-0.8024 6.43997,-2.33066 1.36461,-1.52817 2.03928,-3.65438 2.024,-6.37864 l 0,-35.94119 -17.29593,0 c -2.92869,0.0256 -5.07535,0.80253 -6.43998,2.33066 -1.36469,1.5283 -2.03935,3.65451 -2.02399,6.37864 l 0,31.27987 c -0.0639,0.4805 -0.2428,0.8076 -0.53667,0.98133 -0.29391,0.17383 -0.68747,0.2556 -1.18065,0.24533 l -1.472,0 0,-41.21583 -25.7599,0 0,89.30098 25.7599,0 0,-37.78119 1.472,0 c 0.60819,-0.0127 1.04774,0.10482 1.31866,0.35267 0.27086,0.24792 0.40374,0.70281 0.39866,1.36466 z" />
        <path
           inkscape:connector-curvature="0"
           id="path3000"
           d="m 608.65625,627.54075 c -2.92867,0.0256 -5.07284,0.78437 -6.4375,2.3125 -1.36466,1.5283 -2.04659,3.65087 -2.03125,6.375 l 0,33 0,5.90625 0,33 c -0.0153,2.72413 0.66659,4.8467 2.03125,6.375 1.36466,1.52813 3.50883,2.2869 6.4375,2.3125 l 37.78125,0 c 2.9286,-0.0231 5.07279,-0.80284 6.4375,-2.34375 1.36461,-1.54108 2.04655,-3.68585 2.03125,-6.46875 l 0,-30.3125 -25.78125,0 0,14.84375 c 0.003,0.39348 -0.11692,0.76204 -0.375,1.125 -0.25813,0.36282 -0.66934,0.56815 -1.21875,0.59375 -0.54947,-0.0256 -0.92942,-0.23092 -1.1875,-0.59375 -0.25814,-0.36295 -0.40925,-0.73151 -0.40625,-1.125 l 0,-17.40625 0,-5.90625 0,-17.40625 c -0.003,-0.39349 0.14811,-0.76205 0.40625,-1.125 0.25808,-0.36283 0.63803,-0.56814 1.1875,-0.59375 0.54941,0.0256 0.96062,0.23093 1.21875,0.59375 0.25808,0.36296 0.37752,0.73152 0.375,1.125 l 0,14.84375 25.78125,0 0,-30.3125 c 0.0153,-2.7829 -0.66664,-4.92767 -2.03125,-6.46875 -1.36471,-1.54091 -3.5089,-2.32066 -6.4375,-2.34375 l -37.78125,0 z"
           style="font-variant:normal;font-weight:900;font-stretch:normal;fill:#fbbb1b;fill-opacity:1;stroke:#900c0c;stroke-width:2;stroke-linecap:butt;stroke-linejoin:miter;stroke-miterlimit:4;stroke-opacity:1;stroke-dasharray:none;font-family:Pincoyablack;-inkscape-font-specification:Pincoyablack Heavy" />
        <path
           inkscape:connector-curvature="0"
           id="path3002"
           d="m 657.4375,627.54075 0,89.28125 25.78125,0 0,-37.78125 1.46875,0 c 0.60819,-0.0127 1.04158,0.12715 1.3125,0.375 0.27086,0.24792 0.41133,0.6819 0.40625,1.34375 l 0,27.375 c -0.0154,2.72422 0.63531,4.84679 2,6.375 1.36463,1.52821 3.54006,2.28694 6.46875,2.3125 l 11.96875,0 5.3125,0 57.25,0 0,-22.4375 -57.25,0 0,-11.78125 c 0.0153,-2.72417 -0.66665,-4.84674 -2.03125,-6.375 -1.36472,-1.52817 -3.50889,-2.31815 -6.4375,-2.34375 l -0.125,0 0,-1.71875 0.125,0 c 2.92861,-0.0255 5.07278,-0.78424 6.4375,-2.3125 1.3646,-1.52817 2.04653,-3.65074 2.03125,-6.375 l 0,-27.96875 c -0.008,-2.37146 -0.72265,-4.29837 -2.15625,-5.75 -1.43371,-1.45147 -3.54489,-2.17777 -6.3125,-2.21875 l -46.25,0 z m 65.75,0 c -2.92867,0.0256 -5.10409,0.78437 -6.46875,2.3125 -1.36466,1.5283 -2.01533,3.65087 -2,6.375 l 0,55.46875 25.75,0 0,-7.5 3.1875,0 0,7.5 25.75,0 0,-55.46875 c 0.0153,-2.72413 -0.63539,-4.8467 -2,-6.375 -1.36471,-1.52813 -3.5089,-2.28686 -6.4375,-2.3125 l -37.78125,0 z m -39.96875,22.5625 3.1875,0 0,17.40625 c -0.0103,0.4805 -0.18314,0.82627 -0.5,1 -0.31692,0.17383 -0.7179,0.26027 -1.21875,0.25 l -1.46875,0 0,-18.65625 z m 58.84375,0 c 0.54941,0.0256 0.96062,0.23093 1.21875,0.59375 0.25809,0.36296 0.37752,0.73152 0.375,1.125 l 0,18.625 -3.1875,0 0,-18.625 c -0.003,-0.39349 0.11686,-0.76205 0.375,-1.125 0.25808,-0.36283 0.66928,-0.56814 1.21875,-0.59375 z"
           style="font-variant:normal;font-weight:900;font-stretch:normal;fill:#fbbb1b;fill-opacity:1;stroke:#900c0c;stroke-width:2;stroke-linecap:butt;stroke-linejoin:miter;stroke-miterlimit:4;stroke-opacity:1;stroke-dasharray:none;font-family:Pincoyablack;-inkscape-font-specification:Pincoyablack Heavy" />
        <path
           sodipodi:nodetypes="cccccccccccccccccccc"
           inkscape:connector-curvature="0"
           id="path3006"
           style="font-variant:normal;font-weight:900;font-stretch:normal;fill:#fbbb1b;fill-opacity:1;stroke:#900c0c;stroke-width:2;stroke-linecap:butt;stroke-linejoin:miter;stroke-miterlimit:4;stroke-opacity:1;stroke-dasharray:none;font-family:Pincoyablack;-inkscape-font-specification:Pincoyablack Heavy"
           d="m 797.73014,716.82927 0,-25.26924 28.94922,0 0,-22.44791 -28.94922,0 0,-17.29593 c -0.003,-0.39349 0.1252,-0.77171 0.38333,-1.13466 0.25809,-0.36283 0.66186,-0.55705 1.21133,-0.58266 0.54942,0.0256 0.95319,0.21984 1.21133,0.58266 0.25808,0.36296 0.38586,0.74118 0.38333,1.13466 l 0,14.59728 25.7599,0 0,-30.05322 c 0.0153,-2.7829 -0.65939,-4.94489 -2.02399,-6.48597 -1.36472,-1.54091 -3.51137,-2.3229 -6.43998,-2.34599 l -37.78118,0 c -2.92866,0.0256 -5.07532,0.80253 -6.43997,2.33066 -1.36467,1.5283 -2.03933,3.65451 -2.02399,6.37864 l 0,80.59168 z" />
        <path
           inkscape:connector-curvature="0"
           id="path3008"
           style="font-variant:normal;font-weight:900;font-stretch:normal;fill:#fbbb1b;fill-opacity:1;stroke:#900c0c;stroke-width:2;stroke-linecap:butt;stroke-linejoin:miter;stroke-miterlimit:4;stroke-opacity:1;stroke-dasharray:none;font-family:Pincoyablack;-inkscape-font-specification:Pincoyablack Heavy"
           d="m 858.1804,679.78408 0,14.59728 -1.472,0 c -0.6083,0.008 -1.0478,-0.13031 -1.3187,-0.414 -0.2709,-0.28365 -0.4038,-0.75898 -0.3986,-1.426 l 0,-17.29593 28.9492,0 0,-25.14656 -28.9492,0 0,-22.57058 -25.75993,0 0,80.59168 c -0.0153,2.72422 0.65933,4.85043 2.02403,6.37864 1.3646,1.52821 3.5113,2.3051 6.4399,2.33066 l 37.7812,0 c 2.9286,-0.0256 5.0753,-0.80244 6.44,-2.33066 1.3646,-1.52822 2.0393,-3.65443 2.024,-6.37864 l 0,-28.33589 z" />
        <g
           style="fill:#e47100;fill-opacity:1"
           transform="translate(-169.56249,-37.901552)"
           id="g4071">
          <path
             inkscape:connector-curvature="0"
             d="m 978.71328,733.51299 -7.2874,0 0,7.28689 7.2874,0 0,-7.28689"
             style="fill:#e47100;fill-opacity:1;fill-rule:nonzero;stroke:none"
             id="path116" />
          <path
             inkscape:connector-curvature="0"
             d="m 982.35667,740.79988 -3.64339,0 0,3.64344 -3.64338,0 0,10.93036 3.64338,0 0,-3.64345 7.28678,0 0,3.64345 3.64338,0 0,-10.93036 -3.64338,0 0,-3.64344 -3.64339,0"
             style="fill:#e47100;fill-opacity:1;fill-rule:nonzero;stroke:none"
             id="path118" />
          <path
             inkscape:connector-curvature="0"
             d="m 993.28681,740.79988 0,-7.28689 -7.28675,0 0,7.28689 7.28675,0"
             style="fill:#e47100;fill-opacity:1;fill-rule:nonzero;stroke:none"
             id="path120" />
        </g>
      </g>
    </g>
  </g>
</svg>
